# xmcd
# Copyright (C) 1995-1998 Ti Kan
#
# Track frame offsets:
#       150
#       15907
#       31753
#
# Disc length: 603 seconds
#
# Revision: 0
# Processed by: cddbd v1.5.2PL0 Copyright (c) Steve Scherf et al.
# Submitted via: CD-Transfer v1.0
#
DISCID=10025903
DTITLE=Die Jungen Zillertaler - 
DYEAR=1900
DGENRE=
TTITLE0=So A Schöner Tag (08)
TTITLE1=Du Bist Mein Sonnenschein (08)
TTITLE2=Wicki (08)
EXTD=
EXTT0=
EXTT1=
EXTT2=
PLAYORDER=
